<svg width="100%" viewBox="0 0 370 430" role="img" xmlns="http://www.w3.org/2000/svg" style="">
<title style="fill:rgb(0, 0, 0);stroke:none;color:rgb(255, 255, 255);stroke-width:1px;stroke-linecap:butt;stroke-linejoin:miter;opacity:1;font-family:&quot;Anthropic Sans&quot;, -apple-system, BlinkMacSystemFont, &quot;Segoe UI&quot;, sans-serif;font-size:16px;font-weight:400;text-anchor:start;dominant-baseline:auto">Folhas desenhadas à mão com estilo torto</title>
<desc style="fill:rgb(0, 0, 0);stroke:none;color:rgb(255, 255, 255);stroke-width:1px;stroke-linecap:butt;stroke-linejoin:miter;opacity:1;font-family:&quot;Anthropic Sans&quot;, -apple-system, BlinkMacSystemFont, &quot;Segoe UI&quot;, sans-serif;font-size:16px;font-weight:400;text-anchor:start;dominant-baseline:auto">Quatro folhas brancas com detalhes em roxo e amarelo, estilo desenho feito à mão propositalmente imperfeito</desc>



<!-- FOLHA GRANDE SUPERIOR ESQUERDA (inclinada, um pouco torta) -->
<g transform="rotate(-32, 105, 110)" style="fill:rgb(0, 0, 0);stroke:none;color:rgb(255, 255, 255);stroke-width:1px;stroke-linecap:butt;stroke-linejoin:miter;opacity:1;font-family:&quot;Anthropic Sans&quot;, -apple-system, BlinkMacSystemFont, &quot;Segoe UI&quot;, sans-serif;font-size:16px;font-weight:400;text-anchor:start;dominant-baseline:auto">
  <!-- sombra amarela -->
  <path d="M83,55 C70,40 60,65 58,90 C56,115 68,148 85,158 C102,168 118,155 125,135 C133,112 128,80 118,65 C111,54 90,56 83,55Z" style="fill:rgb(253, 230, 138);stroke:none;color:rgb(255, 255, 255);stroke-width:1px;stroke-linecap:butt;stroke-linejoin:miter;opacity:0.35;font-family:&quot;Anthropic Sans&quot;, -apple-system, BlinkMacSystemFont, &quot;Segoe UI&quot;, sans-serif;font-size:16px;font-weight:400;text-anchor:start;dominant-baseline:auto"/>
  <!-- corpo da folha -->
  <path d="M85,52 C71,38 59,63 57,89 C55,114 68,147 86,157 C103,167 120,153 127,132 C135,109 129,77 119,62 C112,51 92,53 85,52Z" style="fill:rgb(255, 255, 255);stroke:rgb(123, 47, 190);color:rgb(255, 255, 255);stroke-width:2.2px;stroke-linecap:round;stroke-linejoin:round;opacity:1;font-family:&quot;Anthropic Sans&quot;, -apple-system, BlinkMacSystemFont, &quot;Segoe UI&quot;, sans-serif;font-size:16px;font-weight:400;text-anchor:start;dominant-baseline:auto"/>
  <!-- nervura central torta -->
  <path d="M86,54 C89,80 87,110 91,152" style="fill:none;stroke:rgb(123, 47, 190);color:rgb(255, 255, 255);stroke-width:1.4px;stroke-linecap:round;stroke-linejoin:miter;opacity:1;font-family:&quot;Anthropic Sans&quot;, -apple-system, BlinkMacSystemFont, &quot;Segoe UI&quot;, sans-serif;font-size:16px;font-weight:400;text-anchor:start;dominant-baseline:auto"/>
  <!-- nervuras secundárias -->
  <path d="M87,75 C79,72 70,68 63,66" style="fill:none;stroke:rgb(192, 132, 252);color:rgb(255, 255, 255);stroke-width:0.9px;stroke-linecap:round;stroke-linejoin:miter;opacity:1;font-family:&quot;Anthropic Sans&quot;, -apple-system, BlinkMacSystemFont, &quot;Segoe UI&quot;, sans-serif;font-size:16px;font-weight:400;text-anchor:start;dominant-baseline:auto"/>
  <path d="M88,90 C80,89 73,87 65,89" style="fill:none;stroke:rgb(192, 132, 252);color:rgb(255, 255, 255);stroke-width:0.9px;stroke-linecap:round;stroke-linejoin:miter;opacity:1;font-family:&quot;Anthropic Sans&quot;, -apple-system, BlinkMacSystemFont, &quot;Segoe UI&quot;, sans-serif;font-size:16px;font-weight:400;text-anchor:start;dominant-baseline:auto"/>
  <path d="M89,107 C80,105 74,106 68,110" style="fill:none;stroke:rgb(192, 132, 252);color:rgb(255, 255, 255);stroke-width:0.9px;stroke-linecap:round;stroke-linejoin:miter;opacity:1;font-family:&quot;Anthropic Sans&quot;, -apple-system, BlinkMacSystemFont, &quot;Segoe UI&quot;, sans-serif;font-size:16px;font-weight:400;text-anchor:start;dominant-baseline:auto"/>
  <path d="M90,124 C99,122 108,118 118,114" style="fill:none;stroke:rgb(192, 132, 252);color:rgb(255, 255, 255);stroke-width:0.9px;stroke-linecap:round;stroke-linejoin:miter;opacity:1;font-family:&quot;Anthropic Sans&quot;, -apple-system, BlinkMacSystemFont, &quot;Segoe UI&quot;, sans-serif;font-size:16px;font-weight:400;text-anchor:start;dominant-baseline:auto"/>
  <path d="M88,98 C97,97 105,99 114,102" style="fill:none;stroke:rgb(192, 132, 252);color:rgb(255, 255, 255);stroke-width:0.9px;stroke-linecap:round;stroke-linejoin:miter;opacity:1;font-family:&quot;Anthropic Sans&quot;, -apple-system, BlinkMacSystemFont, &quot;Segoe UI&quot;, sans-serif;font-size:16px;font-weight:400;text-anchor:start;dominant-baseline:auto"/>
  <!-- detalhes amarelos -->
  <path d="M80,65 C76,70 74,77 76,83" style="fill:none;stroke:rgb(234, 179, 8);color:rgb(255, 255, 255);stroke-width:1.1px;stroke-linecap:round;stroke-linejoin:miter;opacity:1;font-family:&quot;Anthropic Sans&quot;, -apple-system, BlinkMacSystemFont, &quot;Segoe UI&quot;, sans-serif;font-size:16px;font-weight:400;text-anchor:start;dominant-baseline:auto"/>
  <path d="M95,135 C100,140 105,143 108,148" style="fill:none;stroke:rgb(234, 179, 8);color:rgb(255, 255, 255);stroke-width:1.1px;stroke-linecap:round;stroke-linejoin:miter;opacity:1;font-family:&quot;Anthropic Sans&quot;, -apple-system, BlinkMacSystemFont, &quot;Segoe UI&quot;, sans-serif;font-size:16px;font-weight:400;text-anchor:start;dominant-baseline:auto"/>
  <path d="M70,100 C74,103 78,105 81,108" style="fill:none;stroke:rgb(234, 179, 8);color:rgb(255, 255, 255);stroke-width:0.9px;stroke-dasharray:2px, 5px;stroke-linecap:round;stroke-linejoin:miter;opacity:1;font-family:&quot;Anthropic Sans&quot;, -apple-system, BlinkMacSystemFont, &quot;Segoe UI&quot;, sans-serif;font-size:16px;font-weight:400;text-anchor:start;dominant-baseline:auto"/>
  <!-- rabisco decorativo -->
  <path d="M112,80 C115,77 117,79 116,83 C115,86 112,85 113,82" style="fill:none;stroke:rgb(168, 85, 247);color:rgb(255, 255, 255);stroke-width:0.7px;stroke-linecap:round;stroke-linejoin:miter;opacity:1;font-family:&quot;Anthropic Sans&quot;, -apple-system, BlinkMacSystemFont, &quot;Segoe UI&quot;, sans-serif;font-size:16px;font-weight:400;text-anchor:start;dominant-baseline:auto"/>
</g>

<!-- FOLHA MÉDIA BAIXO CENTRO (bem torta) -->
<g transform="rotate(18, 185, 300)" style="fill:rgb(0, 0, 0);stroke:none;color:rgb(255, 255, 255);stroke-width:1px;stroke-linecap:butt;stroke-linejoin:miter;opacity:1;font-family:&quot;Anthropic Sans&quot;, -apple-system, BlinkMacSystemFont, &quot;Segoe UI&quot;, sans-serif;font-size:16px;font-weight:400;text-anchor:start;dominant-baseline:auto">
  <path d="M162,268 C150,255 143,275 142,298 C141,320 155,345 170,350 C185,355 198,340 202,320 C206,298 200,272 190,261 C183,253 168,265 162,268Z" style="fill:rgb(253, 230, 138);stroke:none;color:rgb(255, 255, 255);stroke-width:1px;stroke-linecap:butt;stroke-linejoin:miter;opacity:0.35;font-family:&quot;Anthropic Sans&quot;, -apple-system, BlinkMacSystemFont, &quot;Segoe UI&quot;, sans-serif;font-size:16px;font-weight:400;text-anchor:start;dominant-baseline:auto"/>
  <path d="M160,265 C148,252 140,273 140,296 C140,319 154,344 170,349 C186,354 199,338 204,318 C208,295 201,269 191,258 C184,250 165,263 160,265Z" style="fill:rgb(255, 255, 255);stroke:rgb(123, 47, 190);color:rgb(255, 255, 255);stroke-width:2.2px;stroke-linecap:round;stroke-linejoin:round;opacity:1;font-family:&quot;Anthropic Sans&quot;, -apple-system, BlinkMacSystemFont, &quot;Segoe UI&quot;, sans-serif;font-size:16px;font-weight:400;text-anchor:start;dominant-baseline:auto"/>
  <path d="M162,267 C165,290 162,315 166,347" style="fill:none;stroke:rgb(123, 47, 190);color:rgb(255, 255, 255);stroke-width:1.4px;stroke-linecap:round;stroke-linejoin:miter;opacity:1;font-family:&quot;Anthropic Sans&quot;, -apple-system, BlinkMacSystemFont, &quot;Segoe UI&quot;, sans-serif;font-size:16px;font-weight:400;text-anchor:start;dominant-baseline:auto"/>
  <path d="M163,285 C156,283 150,280 145,281" style="fill:none;stroke:rgb(192, 132, 252);color:rgb(255, 255, 255);stroke-width:0.9px;stroke-linecap:round;stroke-linejoin:miter;opacity:1;font-family:&quot;Anthropic Sans&quot;, -apple-system, BlinkMacSystemFont, &quot;Segoe UI&quot;, sans-serif;font-size:16px;font-weight:400;text-anchor:start;dominant-baseline:auto"/>
  <path d="M164,300 C157,300 151,302 146,306" style="fill:none;stroke:rgb(192, 132, 252);color:rgb(255, 255, 255);stroke-width:0.9px;stroke-linecap:round;stroke-linejoin:miter;opacity:1;font-family:&quot;Anthropic Sans&quot;, -apple-system, BlinkMacSystemFont, &quot;Segoe UI&quot;, sans-serif;font-size:16px;font-weight:400;text-anchor:start;dominant-baseline:auto"/>
  <path d="M165,316 C172,314 179,311 185,308" style="fill:none;stroke:rgb(192, 132, 252);color:rgb(255, 255, 255);stroke-width:0.9px;stroke-linecap:round;stroke-linejoin:miter;opacity:1;font-family:&quot;Anthropic Sans&quot;, -apple-system, BlinkMacSystemFont, &quot;Segoe UI&quot;, sans-serif;font-size:16px;font-weight:400;text-anchor:start;dominant-baseline:auto"/>
  <path d="M164,293 C171,294 177,297 183,300" style="fill:none;stroke:rgb(192, 132, 252);color:rgb(255, 255, 255);stroke-width:0.9px;stroke-linecap:round;stroke-linejoin:miter;opacity:1;font-family:&quot;Anthropic Sans&quot;, -apple-system, BlinkMacSystemFont, &quot;Segoe UI&quot;, sans-serif;font-size:16px;font-weight:400;text-anchor:start;dominant-baseline:auto"/>
  <path d="M155,278 C152,284 153,290 157,294" style="fill:none;stroke:rgb(234, 179, 8);color:rgb(255, 255, 255);stroke-width:1.1px;stroke-linecap:round;stroke-linejoin:miter;opacity:1;font-family:&quot;Anthropic Sans&quot;, -apple-system, BlinkMacSystemFont, &quot;Segoe UI&quot;, sans-serif;font-size:16px;font-weight:400;text-anchor:start;dominant-baseline:auto"/>
  <path d="M172,330 C177,334 180,338 179,343" style="fill:none;stroke:rgb(234, 179, 8);color:rgb(255, 255, 255);stroke-width:1.1px;stroke-linecap:round;stroke-linejoin:miter;opacity:1;font-family:&quot;Anthropic Sans&quot;, -apple-system, BlinkMacSystemFont, &quot;Segoe UI&quot;, sans-serif;font-size:16px;font-weight:400;text-anchor:start;dominant-baseline:auto"/>
  <path d="M170,307 C174,310 176,314 174,318" style="fill:none;stroke:rgb(123, 47, 190);color:rgb(255, 255, 255);stroke-width:0.8px;stroke-dasharray:3px, 4px;stroke-linecap:round;stroke-linejoin:miter;opacity:1;font-family:&quot;Anthropic Sans&quot;, -apple-system, BlinkMacSystemFont, &quot;Segoe UI&quot;, sans-serif;font-size:16px;font-weight:400;text-anchor:start;dominant-baseline:auto"/>
  <path d="M185,275 C188,272 190,275 189,279 C188,282 185,281 186,278" style="fill:none;stroke:rgb(168, 85, 247);color:rgb(255, 255, 255);stroke-width:0.7px;stroke-linecap:round;stroke-linejoin:miter;opacity:1;font-family:&quot;Anthropic Sans&quot;, -apple-system, BlinkMacSystemFont, &quot;Segoe UI&quot;, sans-serif;font-size:16px;font-weight:400;text-anchor:start;dominant-baseline:auto"/>
  <!-- ponto amarelo aleatorio -->
  <circle cx="152" cy="320" r="2.5" fill="#EAB308" opacity="0.8" style="fill:rgb(234, 179, 8);stroke:none;color:rgb(255, 255, 255);stroke-width:1px;stroke-linecap:butt;stroke-linejoin:miter;opacity:0.8;font-family:&quot;Anthropic Sans&quot;, -apple-system, BlinkMacSystemFont, &quot;Segoe UI&quot;, sans-serif;font-size:16px;font-weight:400;text-anchor:start;dominant-baseline:auto"/>
</g>

<!-- FOLHA PEQUENA ESQUERDA BAIXO -->
<g transform="rotate(-10, 95, 345)" style="fill:rgb(0, 0, 0);stroke:none;color:rgb(255, 255, 255);stroke-width:1px;stroke-linecap:butt;stroke-linejoin:miter;opacity:1;font-family:&quot;Anthropic Sans&quot;, -apple-system, BlinkMacSystemFont, &quot;Segoe UI&quot;, sans-serif;font-size:16px;font-weight:400;text-anchor:start;dominant-baseline:auto">
  <path d="M72,325 C65,317 60,328 60,340 C60,352 68,363 78,364 C88,365 95,356 96,344 C97,331 92,320 85,317 C80,314 75,323 72,325Z" style="fill:rgb(253, 230, 138);stroke:none;color:rgb(255, 255, 255);stroke-width:1px;stroke-linecap:butt;stroke-linejoin:miter;opacity:0.35;font-family:&quot;Anthropic Sans&quot;, -apple-system, BlinkMacSystemFont, &quot;Segoe UI&quot;, sans-serif;font-size:16px;font-weight:400;text-anchor:start;dominant-baseline:auto"/>
  <path d="M70,323 C63,315 57,327 57,340 C57,353 66,364 77,365 C88,366 96,356 97,343 C98,329 93,318 85,315 C79,312 73,320 70,323Z" style="fill:rgb(255, 255, 255);stroke:rgb(123, 47, 190);color:rgb(255, 255, 255);stroke-width:2.2px;stroke-linecap:round;stroke-linejoin:round;opacity:1;font-family:&quot;Anthropic Sans&quot;, -apple-system, BlinkMacSystemFont, &quot;Segoe UI&quot;, sans-serif;font-size:16px;font-weight:400;text-anchor:start;dominant-baseline:auto"/>
  <path d="M71,325 C73,336 72,350 74,363" style="fill:none;stroke:rgb(123, 47, 190);color:rgb(255, 255, 255);stroke-width:1.4px;stroke-linecap:round;stroke-linejoin:miter;opacity:1;font-family:&quot;Anthropic Sans&quot;, -apple-system, BlinkMacSystemFont, &quot;Segoe UI&quot;, sans-serif;font-size:16px;font-weight:400;text-anchor:start;dominant-baseline:auto"/>
  <path d="M72,335 C67,334 63,332 60,333" style="fill:none;stroke:rgb(192, 132, 252);color:rgb(255, 255, 255);stroke-width:0.9px;stroke-linecap:round;stroke-linejoin:miter;opacity:1;font-family:&quot;Anthropic Sans&quot;, -apple-system, BlinkMacSystemFont, &quot;Segoe UI&quot;, sans-serif;font-size:16px;font-weight:400;text-anchor:start;dominant-baseline:auto"/>
  <path d="M73,345 C78,344 82,342 85,340" style="fill:none;stroke:rgb(192, 132, 252);color:rgb(255, 255, 255);stroke-width:0.9px;stroke-linecap:round;stroke-linejoin:miter;opacity:1;font-family:&quot;Anthropic Sans&quot;, -apple-system, BlinkMacSystemFont, &quot;Segoe UI&quot;, sans-serif;font-size:16px;font-weight:400;text-anchor:start;dominant-baseline:auto"/>
  <path d="M66,330 C64,335 65,340 68,343" style="fill:none;stroke:rgb(234, 179, 8);color:rgb(255, 255, 255);stroke-width:1.1px;stroke-linecap:round;stroke-linejoin:miter;opacity:1;font-family:&quot;Anthropic Sans&quot;, -apple-system, BlinkMacSystemFont, &quot;Segoe UI&quot;, sans-serif;font-size:16px;font-weight:400;text-anchor:start;dominant-baseline:auto"/>
  <path d="M79,352 C82,354 84,357 83,361" style="fill:none;stroke:rgb(234, 179, 8);color:rgb(255, 255, 255);stroke-width:0.9px;stroke-dasharray:2px, 5px;stroke-linecap:round;stroke-linejoin:miter;opacity:1;font-family:&quot;Anthropic Sans&quot;, -apple-system, BlinkMacSystemFont, &quot;Segoe UI&quot;, sans-serif;font-size:16px;font-weight:400;text-anchor:start;dominant-baseline:auto"/>
</g>

<!-- FOLHA PEQUENA DIREITA BAIXO (bem torta, quase deitada) -->
<g transform="rotate(35, 290, 355)" style="fill:rgb(0, 0, 0);stroke:none;color:rgb(255, 255, 255);stroke-width:1px;stroke-linecap:butt;stroke-linejoin:miter;opacity:1;font-family:&quot;Anthropic Sans&quot;, -apple-system, BlinkMacSystemFont, &quot;Segoe UI&quot;, sans-serif;font-size:16px;font-weight:400;text-anchor:start;dominant-baseline:auto">
  <path d="M270,338 C263,330 258,341 258,353 C258,364 266,374 275,374 C284,374 291,366 292,354 C293,342 288,332 281,329 C276,327 273,335 270,338Z" style="fill:rgb(253, 230, 138);stroke:none;color:rgb(255, 255, 255);stroke-width:1px;stroke-linecap:butt;stroke-linejoin:miter;opacity:0.35;font-family:&quot;Anthropic Sans&quot;, -apple-system, BlinkMacSystemFont, &quot;Segoe UI&quot;, sans-serif;font-size:16px;font-weight:400;text-anchor:start;dominant-baseline:auto"/>
  <path d="M268,336 C261,327 255,339 255,352 C255,365 264,375 274,375 C284,375 292,366 293,353 C294,340 289,330 282,327 C277,325 271,333 268,336Z" style="fill:rgb(255, 255, 255);stroke:rgb(123, 47, 190);color:rgb(255, 255, 255);stroke-width:2.2px;stroke-linecap:round;stroke-linejoin:round;opacity:1;font-family:&quot;Anthropic Sans&quot;, -apple-system, BlinkMacSystemFont, &quot;Segoe UI&quot;, sans-serif;font-size:16px;font-weight:400;text-anchor:start;dominant-baseline:auto"/>
  <path d="M269,338 C271,348 270,360 272,373" style="fill:none;stroke:rgb(123, 47, 190);color:rgb(255, 255, 255);stroke-width:1.4px;stroke-linecap:round;stroke-linejoin:miter;opacity:1;font-family:&quot;Anthropic Sans&quot;, -apple-system, BlinkMacSystemFont, &quot;Segoe UI&quot;, sans-serif;font-size:16px;font-weight:400;text-anchor:start;dominant-baseline:auto"/>
  <path d="M270,347 C265,346 261,344 258,345" style="fill:none;stroke:rgb(192, 132, 252);color:rgb(255, 255, 255);stroke-width:0.9px;stroke-linecap:round;stroke-linejoin:miter;opacity:1;font-family:&quot;Anthropic Sans&quot;, -apple-system, BlinkMacSystemFont, &quot;Segoe UI&quot;, sans-serif;font-size:16px;font-weight:400;text-anchor:start;dominant-baseline:auto"/>
  <path d="M271,358 C276,357 280,355 283,352" style="fill:none;stroke:rgb(192, 132, 252);color:rgb(255, 255, 255);stroke-width:0.9px;stroke-linecap:round;stroke-linejoin:miter;opacity:1;font-family:&quot;Anthropic Sans&quot;, -apple-system, BlinkMacSystemFont, &quot;Segoe UI&quot;, sans-serif;font-size:16px;font-weight:400;text-anchor:start;dominant-baseline:auto"/>
  <path d="M264,342 C262,347 263,352 266,355" style="fill:none;stroke:rgb(234, 179, 8);color:rgb(255, 255, 255);stroke-width:1.1px;stroke-linecap:round;stroke-linejoin:miter;opacity:1;font-family:&quot;Anthropic Sans&quot;, -apple-system, BlinkMacSystemFont, &quot;Segoe UI&quot;, sans-serif;font-size:16px;font-weight:400;text-anchor:start;dominant-baseline:auto"/>
  <path d="M281,340 C283,337 285,340 284,343 C283,346 281,345 282,342" style="fill:none;stroke:rgb(168, 85, 247);color:rgb(255, 255, 255);stroke-width:0.7px;stroke-linecap:round;stroke-linejoin:miter;opacity:1;font-family:&quot;Anthropic Sans&quot;, -apple-system, BlinkMacSystemFont, &quot;Segoe UI&quot;, sans-serif;font-size:16px;font-weight:400;text-anchor:start;dominant-baseline:auto"/>
</g>

<!-- pequenos detalhes flutuantes tipo pontos e tracinhos soltos -->
<circle cx="140" cy="230" r="2" fill="#A855F7" opacity="0.6" style="fill:rgb(168, 85, 247);stroke:none;color:rgb(255, 255, 255);stroke-width:1px;stroke-linecap:butt;stroke-linejoin:miter;opacity:0.6;font-family:&quot;Anthropic Sans&quot;, -apple-system, BlinkMacSystemFont, &quot;Segoe UI&quot;, sans-serif;font-size:16px;font-weight:400;text-anchor:start;dominant-baseline:auto"/>
<circle cx="143" cy="236" r="1.2" fill="#EAB308" opacity="0.7" style="fill:rgb(234, 179, 8);stroke:none;color:rgb(255, 255, 255);stroke-width:1px;stroke-linecap:butt;stroke-linejoin:miter;opacity:0.7;font-family:&quot;Anthropic Sans&quot;, -apple-system, BlinkMacSystemFont, &quot;Segoe UI&quot;, sans-serif;font-size:16px;font-weight:400;text-anchor:start;dominant-baseline:auto"/>
<path d="M230,180 C232,177 235,179 234,183" stroke="#7B2FBE" stroke-width="0.8" fill="none" stroke-linecap="round" style="fill:none;stroke:rgb(123, 47, 190);color:rgb(255, 255, 255);stroke-width:0.8px;stroke-linecap:round;stroke-linejoin:miter;opacity:1;font-family:&quot;Anthropic Sans&quot;, -apple-system, BlinkMacSystemFont, &quot;Segoe UI&quot;, sans-serif;font-size:16px;font-weight:400;text-anchor:start;dominant-baseline:auto"/>
<path d="M55,200 C57,197 59,199 58,203" stroke="#EAB308" stroke-width="0.8" fill="none" stroke-linecap="round" style="fill:none;stroke:rgb(234, 179, 8);color:rgb(255, 255, 255);stroke-width:0.8px;stroke-linecap:round;stroke-linejoin:miter;opacity:1;font-family:&quot;Anthropic Sans&quot;, -apple-system, BlinkMacSystemFont, &quot;Segoe UI&quot;, sans-serif;font-size:16px;font-weight:400;text-anchor:start;dominant-baseline:auto"/>
<circle cx="310" cy="250" r="1.5" fill="#C084FC" opacity="0.5" style="fill:rgb(192, 132, 252);stroke:none;color:rgb(255, 255, 255);stroke-width:1px;stroke-linecap:butt;stroke-linejoin:miter;opacity:0.5;font-family:&quot;Anthropic Sans&quot;, -apple-system, BlinkMacSystemFont, &quot;Segoe UI&quot;, sans-serif;font-size:16px;font-weight:400;text-anchor:start;dominant-baseline:auto"/>

<!-- linha torta decorativa no canto (tipo mão tremida) -->
<path d="M30,380 C34,376 37,379 36,384 C35,388 31,387 33,383" stroke="#7B2FBE" stroke-width="0.9" fill="none" stroke-linecap="round" style="fill:none;stroke:rgb(123, 47, 190);color:rgb(255, 255, 255);stroke-width:0.9px;stroke-linecap:round;stroke-linejoin:miter;opacity:1;font-family:&quot;Anthropic Sans&quot;, -apple-system, BlinkMacSystemFont, &quot;Segoe UI&quot;, sans-serif;font-size:16px;font-weight:400;text-anchor:start;dominant-baseline:auto"/>
<path d="M330,100 C333,97 336,100 335,104" stroke="#EAB308" stroke-width="0.8" fill="none" stroke-linecap="round" style="fill:none;stroke:rgb(234, 179, 8);color:rgb(255, 255, 255);stroke-width:0.8px;stroke-linecap:round;stroke-linejoin:miter;opacity:1;font-family:&quot;Anthropic Sans&quot;, -apple-system, BlinkMacSystemFont, &quot;Segoe UI&quot;, sans-serif;font-size:16px;font-weight:400;text-anchor:start;dominant-baseline:auto"/>

</svg>